<?xml version="1.0" standalone="no"?>
<!DOCTYPE svg PUBLIC "-//W3C//DTD SVG 20010904//EN"
 "http://www.w3.org/TR/2001/REC-SVG-20010904/DTD/svg10.dtd">
<svg version="1.0" xmlns="http://www.w3.org/2000/svg"
 width="300.000000pt" height="300.000000pt" viewBox="0 0 300.000000 300.000000"
 preserveAspectRatio="xMidYMid meet">
<metadata>
Created by potrace 1.10, written by Peter Selinger 2001-2011
</metadata>
<g transform="translate(0.000000,300.000000) scale(0.100000,-0.100000)"
fill="#000000" stroke="none">
<path d="M1417 2618 l-77 -41 -60 16 c-109 31 -143 22 -206 -52 -46 -53 -86
-71 -159 -71 -31 0 -65 -5 -75 -10 -10 -6 -35 -43 -55 -84 -36 -75 -62 -97
-127 -111 -52 -10 -80 -46 -89 -114 -11 -81 -20 -96 -78 -131 -62 -39 -74 -65
-65 -151 6 -59 4 -72 -15 -102 -11 -19 -17 -38 -13 -42 4 -5 2 -5 -5 -2 -6 4
-21 -5 -33 -20 -22 -28 -23 -64 -5 -119 6 -20 2 -23 -37 -29 -60 -10 -122 -42
-140 -73 -22 -38 -33 -92 -18 -92 7 0 10 -7 6 -16 -7 -17 95 -429 119 -482 28
-61 107 -88 182 -61 27 9 34 7 59 -16 15 -14 39 -28 53 -32 53 -12 81 -42 98
-104 23 -83 45 -104 118 -113 43 -5 61 -3 67 6 7 10 9 10 6 -2 -3 -8 8 -25 24
-38 15 -13 28 -29 28 -36 0 -7 15 -29 33 -49 32 -36 48 -42 115 -39 32 2 33 3
28 40 l-6 37 11 -32 c8 -21 20 -34 37 -38 14 -3 48 -26 75 -51 57 -51 88 -56
162 -24 62 27 76 25 141 -11 67 -38 96 -35 160 17 43 36 46 37 102 29 119 -16
146 -6 190 67 22 37 69 58 130 58 64 0 94 25 117 98 19 59 45 81 120 102 61
17 77 39 86 115 10 78 19 94 76 130 69 43 79 64 66 142 -8 42 -8 74 -2 90 5
14 6 29 3 35 -4 6 -2 8 3 5 6 -4 25 9 42 28 22 26 31 46 31 71 0 43 -17 77
-33 68 -7 -4 -8 -3 -4 2 9 9 14 11 47 13 11 0 20 8 20 16 0 8 5 15 10 15 6 0
10 -4 10 -10 0 -6 9 -6 23 -1 23 9 31 11 45 11 14 0 58 43 71 67 6 12 11 38
11 59 0 35 -99 438 -122 497 -11 28 -56 68 -91 80 -15 6 -17 3 -13 -16 l6 -22
-11 23 c-14 25 -20 26 -69 11 -19 -5 -46 -12 -59 -15 -13 -3 -28 -6 -34 -7 -5
-1 -15 24 -21 55 -15 73 -33 92 -104 112 -78 21 -97 37 -118 97 -10 28 -32 62
-47 75 -29 24 -77 33 -77 14 0 -5 -5 -10 -11 -10 -5 0 -7 5 -3 11 4 7 -2 10
-17 8 -39 -5 -84 20 -119 66 -39 52 -76 70 -127 61 -118 -21 -131 -20 -193 18
-32 20 -60 36 -63 36 -3 0 -8 -13 -12 -30 -4 -16 -11 -30 -16 -30 -6 0 -8 -3
-6 -7 3 -5 -1 -14 -9 -21 -8 -7 -14 -8 -14 -2 0 5 -7 10 -15 10 -8 0 -15 5
-15 11 0 5 4 8 9 5 5 -3 11 1 15 9 3 8 12 12 19 9 15 -5 31 32 21 48 -9 14
-27 8 -107 -34z m157 -14 c9 -3 16 -15 16 -25 0 -12 5 -16 14 -13 8 3 17 1 20
-4 3 -5 -5 -12 -18 -14 -20 -4 -25 0 -30 23 -4 22 -9 27 -22 22 -12 -4 -15 -3
-10 5 8 14 9 14 30 6z m-364 -35 c0 -5 9 -9 19 -9 10 0 22 -7 25 -16 5 -13 2
-15 -14 -11 -11 3 -18 1 -14 -4 8 -13 -20 -11 -34 3 -18 18 -16 59 3 52 8 -4
15 -10 15 -15z m-45 -38 c-4 -13 -11 -18 -22 -14 -8 3 -18 1 -22 -4 -3 -6 -14
-7 -26 -2 -11 4 -14 8 -7 8 6 1 12 8 12 16 0 12 4 13 19 5 23 -12 41 -13 40
-2 -3 15 1 25 7 19 3 -3 3 -15 -1 -26z m699 4 c30 -28 31 -31 12 -38 -11 -4
-13 -1 -9 10 5 12 2 15 -10 10 -10 -4 -30 -4 -46 -1 -22 5 -27 10 -24 25 7 27
45 24 77 -6z m-213 -16 c157 -24 334 -97 459 -189 64 -48 184 -163 216 -208 8
-12 20 -20 25 -17 5 3 6 -1 3 -9 -3 -9 -7 -16 -8 -16 -1 0 -61 -15 -133 -34
l-131 -34 -46 46 c-27 28 -55 47 -69 47 -14 1 -61 20 -106 44 -45 23 -98 48
-119 56 -20 7 -30 14 -20 14 9 1 61 -21 116 -49 112 -56 153 -66 77 -18 -172
108 -417 147 -615 97 -262 -66 -483 -273 -565 -529 -10 -30 -19 -57 -21 -58
-1 -2 -44 -15 -96 -28 -115 -31 -128 -33 -128 -30 0 49 50 227 62 220 4 -3 5
1 2 9 -7 20 44 131 97 208 53 80 158 191 172 182 6 -3 7 -2 4 4 -8 13 21 40
108 97 40 27 78 45 88 42 9 -2 15 0 12 5 -9 14 78 52 220 96 49 14 94 18 240
18 160 0 189 -3 260 -23 187 -55 324 -138 468 -283 53 -55 97 -95 97 -90 0 17
-150 170 -213 217 -199 149 -469 223 -714 196 -456 -51 -812 -372 -901 -813
-10 -51 -24 -95 -30 -97 -26 -8 31 223 81 332 69 148 204 315 320 394 26 19
45 37 42 41 -2 5 1 8 8 8 6 -1 53 19 102 44 96 49 185 82 275 100 51 11 267
27 281 22 3 -1 39 -7 80 -14z m456 -79 c-4 -14 0 -20 12 -20 16 0 57 -77 46
-88 -3 -3 -5 1 -5 9 0 12 -2 11 -11 -1 -9 -13 -10 -13 -6 2 6 17 -18 33 -34
23 -5 -4 -6 1 -3 9 3 9 2 16 -3 16 -5 0 -8 15 -7 33 2 37 2 37 10 37 4 0 4 -9
1 -20z m-1244 -21 c-14 -4 -13 -7 2 -22 9 -10 21 -14 27 -11 7 4 8 2 4 -4 -9
-14 -33 -3 -61 28 -16 18 -16 20 -2 14 12 -4 17 -1 17 10 0 14 2 15 14 4 12
-11 12 -14 -1 -19z m600 -181 c4 -10 8 -10 15 1 7 9 12 10 16 2 4 -6 29 -11
55 -11 98 0 261 -55 357 -120 48 -32 59 -37 48 -18 -10 16 12 2 64 -41 23 -19
42 -40 42 -45 0 -6 -20 10 -45 34 -24 24 -47 41 -50 39 -3 -3 13 -20 35 -38
22 -17 40 -37 40 -43 0 -6 -3 -9 -6 -6 -3 3 -143 -30 -312 -73 -169 -44 -314
-81 -322 -83 -176 -43 -396 -103 -398 -109 -2 -4 -7 -5 -11 -2 -12 7 -213 -50
-204 -58 4 -5 0 -5 -10 -1 -9 3 -17 8 -17 10 0 3 14 40 30 83 93 240 319 421
583 465 52 9 69 14 46 15 -20 1 -71 -8 -115 -19 -255 -64 -463 -258 -540 -502
-9 -32 -19 -56 -22 -54 -7 8 30 109 64 176 73 141 191 256 338 329 126 64 306
102 319 69z m854 -25 c8 -10 12 -13 9 -7 -3 7 1 15 10 18 8 3 12 2 9 -4 -3 -6
-1 -10 4 -10 6 0 11 -8 11 -17 0 -15 2 -14 15 3 14 18 14 18 9 -3 -3 -11 -15
-24 -27 -27 -12 -3 -22 -4 -22 -3 -1 1 -12 17 -24 35 -23 33 -19 45 6 15z
m-1657 -33 c0 -13 -1 -13 -10 0 -8 12 -10 10 -10 -8 0 -13 4 -20 10 -17 6 4 7
-1 3 -11 -4 -10 -8 -13 -10 -7 -3 7 -11 9 -19 6 -19 -7 -18 21 3 53 12 19 18
22 24 12 5 -7 9 -20 9 -28z m1972 -97 c15 -7 34 -25 42 -40 17 -34 109 -389
104 -404 -2 -5 -14 32 -27 83 -72 285 -81 313 -107 336 -14 12 -30 22 -37 22
-7 -1 1 -8 16 -16 15 -8 32 -26 37 -39 16 -43 120 -453 120 -475 0 -34 -42
-67 -104 -81 -31 -7 -54 -14 -52 -16 11 -12 117 22 137 43 21 22 45 119 27
108 -4 -3 -8 2 -8 10 0 18 8 20 30 6 12 -7 12 -12 2 -22 -6 -6 -12 -27 -12
-46 0 -24 -8 -42 -29 -62 -16 -16 -26 -32 -22 -36 3 -3 -5 -3 -18 1 -14 4 -21
3 -18 -2 4 -6 -3 -8 -16 -6 -12 2 -36 -1 -52 -8 -17 -7 -33 -12 -36 -11 -4 1
-55 -12 -115 -29 -60 -16 -120 -32 -134 -35 -72 -15 -526 -137 -533 -144 -5
-4 -18 -5 -29 -2 -13 3 50 24 163 54 101 26 248 65 327 85 78 21 138 39 133
41 -5 2 -139 -31 -297 -73 -159 -42 -306 -81 -328 -86 -35 -10 -37 -11 -20
-24 18 -14 18 -14 -1 -16 -11 -1 -28 -1 -37 0 -9 1 -43 -6 -75 -15 -32 -10
-60 -18 -63 -19 -3 0 -74 -18 -157 -39 -136 -34 -153 -41 -154 -60 -1 -18 -2
-18 -6 -3 -4 14 -11 17 -26 13 -12 -4 -31 -9 -42 -11 -81 -17 -233 -60 -230
-65 2 -4 -5 -6 -17 -5 -11 1 -96 -18 -187 -42 -91 -23 -170 -43 -174 -43 -5 0
-5 -4 -2 -10 3 -6 -1 -7 -9 -4 -9 3 -54 -4 -100 -16 -59 -16 -93 -20 -113 -14
-15 4 -34 8 -42 9 -15 0 -23 20 -47 120 -15 62 -16 66 -26 100 -3 11 -14 55
-23 97 -10 43 -21 75 -26 72 -4 -2 -7 8 -6 23 1 16 -2 49 -7 75 -17 97 8 126
135 159 64 16 89 27 89 38 0 14 2 14 9 2 8 -12 19 -12 77 4 38 10 63 20 56 23
-7 2 -10 8 -7 13 4 5 13 4 23 -2 13 -8 59 0 195 35 97 25 180 46 183 46 3 0 2
5 -1 10 -3 6 -2 10 4 10 5 0 11 -6 14 -12 3 -9 -46 -26 -157 -54 -583 -149
-606 -156 -606 -187 1 -7 6 -5 14 6 17 22 52 33 306 98 113 28 368 94 567 145
199 52 365 94 369 94 4 0 5 2 2 6 -3 3 -110 -22 -238 -55 -128 -34 -237 -61
-241 -61 -5 0 -6 7 -2 16 3 9 9 11 12 6 3 -5 82 11 191 39 102 27 322 84 489
127 247 64 306 82 312 98 7 18 8 18 8 0 1 -12 6 -16 16 -12 8 3 133 35 278 71
144 37 269 70 277 74 8 5 17 6 20 2 3 -4 17 -12 32 -18z m-2120 -136 c-6 -7
-9 -24 -8 -39 2 -20 -1 -25 -12 -20 -11 4 -13 2 -7 -9 8 -12 6 -12 -8 0 -11 8
-16 25 -14 45 2 27 6 32 25 30 12 -1 22 3 22 9 0 5 3 7 6 4 4 -4 2 -12 -4 -20z
m-63 -214 c-9 -10 -8 -18 2 -30 11 -15 11 -16 -1 -5 -25 21 -33 13 -27 -28 3
-22 1 -43 -5 -46 -6 -4 -6 -9 2 -14 8 -5 3 -7 -13 -7 -30 2 -35 12 -12 21 10
3 14 18 13 43 -1 42 17 80 38 80 10 0 11 -4 3 -14z m2081 -372 c0 -5 -9 -52
-20 -105 -23 -112 -65 -225 -117 -311 -20 -33 -36 -66 -36 -73 0 -6 -2 -10 -5
-8 -2 3 -21 -16 -42 -42 -20 -26 -72 -81 -116 -122 -43 -41 -78 -79 -76 -83 1
-5 -2 -6 -7 -3 -5 4 -30 -8 -55 -24 -109 -74 -291 -142 -421 -158 -92 -11
-273 -5 -343 12 l-64 15 7 -26 c4 -18 2 -24 -7 -20 -7 2 -13 13 -12 25 0 17
-12 25 -60 43 -109 40 -231 106 -307 167 -81 64 -209 198 -209 219 0 21 17 15
36 -14 28 -44 124 -142 184 -188 213 -163 484 -242 733 -215 339 38 620 224
792 525 47 83 102 240 111 320 3 28 7 56 10 63 4 14 24 17 24 3z m-45 -48
c-45 -301 -247 -587 -517 -732 -364 -197 -812 -147 -1133 126 -40 34 -94 88
-119 119 l-47 57 116 29 116 29 49 -45 c181 -170 444 -247 682 -202 217 42
409 169 523 346 42 66 90 174 101 229 6 28 11 31 95 51 49 11 99 25 111 30 13
5 25 9 27 9 2 1 0 -20 -4 -46z m117 19 c-7 -5 -11 -19 -10 -32 2 -16 -3 -25
-14 -28 -23 -5 -22 55 1 61 27 8 37 7 23 -1z m-388 -74 c-80 -267 -295 -465
-569 -523 -212 -45 -437 9 -619 148 -74 56 -90 77 -58 77 10 0 22 3 26 7 3 4
14 7 24 8 19 2 231 56 568 145 123 32 239 62 259 66 19 3 35 10 35 16 0 5 4 7
8 4 13 -8 223 49 215 59 -5 4 -2 5 5 1 18 -11 99 13 106 30 3 8 8 14 10 14 3
0 -2 -23 -10 -52z m-32 -130 c-48 -98 -120 -189 -198 -253 -59 -48 -162 -108
-204 -120 -14 -3 11 12 55 35 44 22 108 63 143 91 76 60 168 181 207 272 16
36 31 64 34 62 2 -3 -14 -42 -37 -87z m326 -111 c4 -19 -6 -21 -27 -8 -16 10
-5 34 12 28 7 -2 13 -11 15 -20z m-1458 -168 c19 -13 62 -39 95 -57 33 -18 49
-30 36 -26 -56 15 -251 154 -251 178 0 6 19 -8 43 -30 23 -23 58 -52 77 -65z
m-489 -9 c6 0 8 4 5 9 -3 5 6 9 20 9 18 0 28 -7 31 -19 3 -11 9 -19 14 -19 5
0 9 -8 9 -17 0 -14 -2 -15 -9 -5 -4 7 -25 19 -47 27 -21 7 -39 18 -40 24 -2 7
0 7 3 1 2 -5 9 -10 14 -10z m1800 -63 c0 -21 1 -21 9 -2 8 18 9 18 9 2 1 -11
-8 -21 -19 -24 -11 -3 -18 -9 -15 -12 7 -13 -29 -9 -50 5 -17 12 -17 14 -2 14
9 0 17 -4 17 -10 0 -5 4 -10 10 -10 6 0 6 9 0 26 -9 22 -8 25 5 20 9 -3 15 0
15 10 0 24 20 6 21 -19z m-613 -33 c-9 -8 -110 -34 -133 -33 -11 0 12 9 50 19
80 20 90 22 83 14z m-163 -39 c20 -7 -191 -3 -220 4 -16 4 24 6 90 3 66 -2
125 -5 130 -7z m-814 -58 c0 -21 1 -21 9 -2 8 17 8 16 7 -7 -1 -28 -11 -36
-21 -19 -3 5 -16 7 -29 4 -18 -5 -20 -3 -9 8 14 15 16 33 3 24 -5 -3 -13 0
-17 6 -4 8 -3 9 4 5 7 -4 12 -1 12 9 0 26 40 -1 41 -28z m227 -152 c-4 6 2 11
12 11 10 0 16 -6 13 -13 -8 -19 -53 -16 -53 3 0 14 2 15 17 3 9 -8 14 -9 11
-4z m889 -55 c3 -11 8 -9 19 10 10 16 13 18 9 5 -4 -11 -10 -28 -12 -37 -6
-20 -23 -24 -23 -6 0 6 -7 3 -15 -8 -14 -19 -14 -19 -15 1 0 15 -2 17 -9 7 -7
-11 -9 -10 -14 3 -4 9 -3 13 3 10 6 -3 10 -2 10 4 0 5 -6 11 -12 14 -7 2 -9 8
-5 13 5 5 13 1 18 -9 16 -27 37 -21 33 11 -4 25 0 20 13 -18z m-557 -43 c0
-16 -9 -28 -26 -35 -14 -7 -23 -8 -19 -3 3 5 -4 13 -16 16 -24 8 -18 17 13 22
12 2 25 -2 30 -9 5 -9 8 -6 8 10 0 12 2 22 5 22 3 0 5 -11 5 -23z m267 -2 c-5
-11 -1 -12 19 -5 52 20 61 11 24 -23 -29 -27 -37 -30 -49 -19 -12 11 -15 11
-22 0 -6 -9 -9 -9 -9 -1 0 6 -2 17 -5 25 -3 7 5 18 17 24 31 16 31 16 25 -1z"/>
<path d="M676 1885 c1 -71 -1 -85 -14 -85 -8 0 -12 -3 -9 -6 12 -12 -47 -55
-67 -50 -13 3 -16 2 -8 -6 14 -14 42 -3 80 33 27 25 33 37 29 59 -3 14 -2 42
2 62 5 22 4 43 -3 56 -9 17 -11 4 -10 -63z"/>
<path d="M2467 2058 c-43 -11 -76 -22 -74 -24 2 -3 49 7 103 20 54 14 88 25
74 24 -14 0 -60 -9 -103 -20z"/>
<path d="M2167 1982 c-76 -20 -134 -38 -129 -40 8 -2 265 60 297 73 40 15 -53
-3 -168 -33z"/>
<path d="M1890 1910 c-58 -15 -153 -40 -213 -56 -59 -15 -105 -29 -103 -31 4
-4 438 106 445 113 9 9 -28 1 -129 -26z"/>
<path d="M2189 1858 c-36 -9 -37 -11 -54 -90 l-17 -81 -57 61 -56 62 -45 -11
c-25 -7 -47 -14 -49 -16 -3 -2 11 -19 30 -39 l34 -35 6 43 6 43 1 -49 c2 -45
7 -54 55 -105 47 -50 54 -63 66 -125 l14 -68 35 6 c19 3 39 9 44 14 5 5 1 39
-8 79 l-17 70 30 109 c17 60 34 117 38 127 8 19 0 20 -56 5z m-123 -163 c-3
-8 -1 -16 4 -16 6 -1 15 -2 22 -3 11 -1 25 -26 14 -26 -4 0 -16 6 -29 13 -12
6 -23 12 -25 13 -4 2 10 34 15 34 3 0 3 -7 -1 -15z m74 -13 c-5 -19 -3 -40 6
-61 18 -43 18 -41 -12 -41 -20 0 -25 4 -20 16 4 9 2 22 -4 29 -7 9 -6 16 5 25
8 7 15 23 15 36 0 13 4 24 9 24 6 0 6 -12 1 -28z"/>
<path d="M1760 1748 c-63 -17 -116 -32 -118 -33 -4 -3 84 -364 90 -370 5 -6
88 16 88 24 0 3 -9 36 -19 73 -11 36 -17 69 -13 72 3 3 16 6 30 6 20 0 24 4
20 25 -3 13 -1 22 3 19 5 -3 9 -12 9 -21 0 -11 6 -14 23 -9 12 3 28 6 36 6 10
0 12 9 6 38 -4 20 -8 38 -10 40 -1 2 -30 -4 -63 -12 -33 -9 -65 -16 -70 -16
-15 0 -27 63 -13 68 6 2 11 17 11 32 0 16 4 31 8 34 5 3 6 -8 4 -25 -5 -34 0
-35 75 -13 41 12 53 20 49 31 -3 8 -9 26 -12 39 -3 13 -9 24 -13 23 -3 0 -58
-14 -121 -31z m12 -187 c4 -4 2 -13 -3 -21 -9 -13 -10 -12 -5 3 3 9 1 17 -4
17 -6 0 -10 -7 -10 -15 0 -18 -9 -19 -30 -4 -13 10 -13 10 1 6 9 -3 16 1 16 9
0 7 -4 11 -8 9 -4 -3 -9 2 -12 10 -5 12 -2 12 21 3 15 -7 30 -14 34 -17z m-2
-71 c0 -16 -5 -30 -11 -30 -6 0 -8 7 -5 16 4 9 1 23 -5 30 -9 11 -8 14 5 14
11 0 16 -9 16 -30z"/>
<path d="M1492 1679 c-24 -7 -32 -14 -28 -27 20 -69 56 -225 56 -246 0 -15 -8
-31 -20 -38 -25 -16 -26 -28 -1 -28 11 0 22 -4 25 -9 4 -5 -3 -7 -14 -4 -16 4
-18 1 -14 -22 4 -25 3 -26 -11 -12 -8 9 -15 27 -15 41 0 15 -6 26 -14 26 -24
0 -34 23 -62 145 -15 66 -31 124 -34 128 -7 8 -90 -9 -90 -19 0 -2 14 -62 31
-132 36 -145 60 -185 118 -203 59 -17 108 -4 154 42 l40 39 -5 77 c-4 65 -9
78 -29 95 -14 10 -17 16 -7 12 15 -5 16 -1 2 58 -23 99 -18 95 -82 77z m35
-62 c1 -15 -3 -27 -9 -27 -6 0 -8 9 -5 20 3 11 1 20 -4 20 -5 0 -9 5 -9 11 0
23 25 1 27 -24z"/>
<path d="M1125 1583 c-11 -3 -24 -8 -28 -12 -4 -5 9 -76 30 -160 l38 -153 17
43 c10 23 21 39 24 36 3 -3 -4 -25 -15 -50 -36 -78 -26 -95 39 -76 35 11 40
16 35 33 -3 12 -11 42 -17 69 -6 26 -14 47 -17 47 -3 0 -6 16 -7 36 0 20 -5
39 -10 42 -5 4 -10 21 -10 37 -1 17 -7 49 -13 73 -12 43 -19 46 -66 35z"/>
<path d="M855 1516 c-44 -19 -103 -89 -111 -131 -11 -60 1 -124 33 -169 30
-44 100 -86 143 -86 43 0 101 20 94 32 -4 7 -2 8 5 4 13 -9 71 30 71 48 0 7
-13 22 -30 34 l-29 22 -28 -26 c-15 -14 -27 -34 -25 -43 2 -14 1 -14 -8 2 -6
9 -23 17 -39 17 -66 0 -124 101 -94 162 15 29 58 68 76 68 5 0 16 8 24 18 8
10 12 12 11 4 -2 -8 7 -20 19 -29 21 -14 23 -13 43 26 l21 41 -26 10 c-36 14
-114 12 -150 -4z"/>
<path d="M211 1412 c-1 -33 108 -486 116 -479 2 3 -21 105 -51 228 -30 123
-57 238 -59 254 l-4 30 -2 -33z"/>
<path d="M1612 1192 c-73 -19 -130 -37 -128 -39 6 -6 249 58 261 68 5 5 7 9 5
8 -3 -1 -65 -17 -138 -37z"/>
<path d="M1223 1091 c-116 -31 -215 -60 -220 -65 -5 -5 0 -6 10 -3 11 4 116
32 235 63 120 31 219 58 221 60 11 11 -52 -3 -246 -55z"/>
<path d="M855 995 c-66 -18 -177 -47 -248 -65 -70 -18 -125 -35 -123 -37 2 -2
102 22 222 53 121 31 231 59 247 62 15 2 30 8 33 13 7 12 6 12 -131 -26z"/>
<path d="M344 903 c22 -27 61 -36 101 -24 26 7 23 8 -21 7 -39 -1 -58 4 -75
19 l-24 20 19 -22z"/>
<path d="M1834 738 c-4 -6 -3 -8 3 -5 5 3 33 0 61 -8 29 -7 52 -10 52 -6 0 6
-79 31 -100 31 -5 0 -12 -5 -16 -12z"/>
<path d="M984 668 c-4 -6 -3 -8 3 -5 12 8 23 -13 24 -46 0 -21 1 -21 8 -2 8
20 -6 65 -20 65 -4 0 -11 -5 -15 -12z"/>
</g>
</svg>
